<svg id="visual" viewBox="0 0 900 600" width="900" height="600" xmlns="http://www.w3.org/2000/svg" xmlns:xlink="http://www.w3.org/1999/xlink" version="1.1"><rect x="0" y="0" width="900" height="600" fill="#001220"></rect><path d="M0 394L21.5 401.8C43 409.7 86 425.3 128.8 428.5C171.7 431.7 214.3 422.3 257.2 420C300 417.7 343 422.3 385.8 425.7C428.7 429 471.3 431 514.2 431.2C557 431.3 600 429.7 642.8 423.5C685.7 417.3 728.3 406.7 771.2 406.5C814 406.3 857 416.7 878.5 421.8L900 427L900 601L878.5 601C857 601 814 601 771.2 601C728.3 601 685.7 601 642.8 601C600 601 557 601 514.2 601C471.3 601 428.7 601 385.8 601C343 601 300 601 257.2 601C214.3 601 171.7 601 128.8 601C86 601 43 601 21.5 601L0 601Z" fill="#8f68ca"></path><path d="M0 416L21.5 426C43 436 86 456 128.8 460.2C171.7 464.3 214.3 452.7 257.2 441C300 429.3 343 417.7 385.8 417.2C428.7 416.7 471.3 427.3 514.2 433.8C557 440.3 600 442.7 642.8 448C685.7 453.3 728.3 461.7 771.2 455.7C814 449.7 857 429.3 878.5 419.2L900 409L900 601L878.5 601C857 601 814 601 771.2 601C728.3 601 685.7 601 642.8 601C600 601 557 601 514.2 601C471.3 601 428.7 601 385.8 601C343 601 300 601 257.2 601C214.3 601 171.7 601 128.8 601C86 601 43 601 21.5 601L0 601Z" fill="#8c59ca"></path><path d="M0 457L21.5 458C43 459 86 461 128.8 461.3C171.7 461.7 214.3 460.3 257.2 466.7C300 473 343 487 385.8 488.5C428.7 490 471.3 479 514.2 474C557 469 600 470 642.8 466.3C685.7 462.7 728.3 454.3 771.2 450.5C814 446.7 857 447.3 878.5 447.7L900 448L900 601L878.5 601C857 601 814 601 771.2 601C728.3 601 685.7 601 642.8 601C600 601 557 601 514.2 601C471.3 601 428.7 601 385.8 601C343 601 300 601 257.2 601C214.3 601 171.7 601 128.8 601C86 601 43 601 21.5 601L0 601Z" fill="#8948c9"></path><path d="M0 496L21.5 502.3C43 508.7 86 521.3 128.8 524.5C171.7 527.7 214.3 521.3 257.2 516.5C300 511.7 343 508.3 385.8 506C428.7 503.7 471.3 502.3 514.2 508.3C557 514.3 600 527.7 642.8 529C685.7 530.3 728.3 519.7 771.2 516.8C814 514 857 519 878.5 521.5L900 524L900 601L878.5 601C857 601 814 601 771.2 601C728.3 601 685.7 601 642.8 601C600 601 557 601 514.2 601C471.3 601 428.7 601 385.8 601C343 601 300 601 257.2 601C214.3 601 171.7 601 128.8 601C86 601 43 601 21.5 601L0 601Z" fill="#8734c7"></path><path d="M0 556L21.5 551.2C43 546.3 86 536.7 128.8 535.2C171.7 533.7 214.3 540.3 257.2 547.8C300 555.3 343 563.7 385.8 565.3C428.7 567 471.3 562 514.2 554.5C557 547 600 537 642.8 532.5C685.7 528 728.3 529 771.2 535C814 541 857 552 878.5 557.5L900 563L900 601L878.5 601C857 601 814 601 771.2 601C728.3 601 685.7 601 642.8 601C600 601 557 601 514.2 601C471.3 601 428.7 601 385.8 601C343 601 300 601 257.2 601C214.3 601 171.7 601 128.8 601C86 601 43 601 21.5 601L0 601Z" fill="#8616c5"></path></svg>